<?xml version="1.0" encoding="utf-8"?>
<svg viewBox="0 0 300 100" xmlns="http://www.w3.org/2000/svg">
  <path d="M 40.71 81.46 L 39.18 85.95 C 34.233 84.557 30.71 82.337 28.61 79.29 C 26.517 76.243 25.47 72.56 25.47 68.24 L 25.47 60.44 C 25.47 57.593 24.823 55.377 23.53 53.79 C 22.237 52.203 20.243 51.41 17.55 51.41 L 17.55 45.81 C 20.243 45.81 22.237 45.03 23.53 43.47 C 24.823 41.91 25.47 39.693 25.47 36.82 L 25.47 28.98 C 25.47 24.633 26.517 20.943 28.61 17.91 C 30.71 14.877 34.233 12.663 39.18 11.27 L 40.71 15.72 C 37.917 16.613 35.93 18.207 34.75 20.5 C 33.563 22.8 32.97 25.627 32.97 28.98 L 32.97 36.82 C 32.97 39.487 32.437 41.837 31.37 43.87 C 30.31 45.903 28.7 47.49 26.54 48.63 C 28.7 49.797 30.31 51.403 31.37 53.45 C 32.437 55.49 32.97 57.82 32.97 60.44 L 32.97 68.24 C 32.97 71.593 33.563 74.407 34.75 76.68 C 35.93 78.953 37.917 80.547 40.71 81.46 Z M 104.27 72.09 L 64.31 72.09 L 64.31 67.29 L 70.52 66.22 L 70.52 22.54 L 64.31 21.47 L 64.31 16.64 L 70.52 16.64 L 78.03 16.64 L 84.23 16.64 L 84.23 21.47 L 78.03 22.54 L 78.03 66.34 L 97.64 66.34 L 98.52 57.58 L 104.27 57.58 L 104.27 72.09 Z M 129.512 72.89 C 125.705 72.89 122.425 71.993 119.672 70.2 C 116.912 68.413 114.785 65.94 113.292 62.78 C 111.792 59.62 111.042 56.007 111.042 51.94 L 111.042 51.1 C 111.042 47.04 111.792 43.43 113.292 40.27 C 114.785 37.11 116.912 34.627 119.672 32.82 C 122.425 31.02 125.682 30.12 129.442 30.12 C 133.249 30.12 136.529 31.02 139.282 32.82 C 142.035 34.627 144.162 37.103 145.662 40.25 C 147.162 43.397 147.912 47.013 147.912 51.1 L 147.912 51.94 C 147.912 56.027 147.162 59.653 145.662 62.82 C 144.162 65.98 142.042 68.447 139.302 70.22 C 136.562 72 133.299 72.89 129.512 72.89 Z M 129.512 67.02 C 131.899 67.02 133.899 66.367 135.512 65.06 C 137.125 63.753 138.345 61.963 139.172 59.69 C 139.992 57.417 140.402 54.833 140.402 51.94 L 140.402 51.1 C 140.402 48.207 139.992 45.623 139.172 43.35 C 138.345 41.083 137.119 39.293 135.492 37.98 C 133.865 36.673 131.849 36.02 129.442 36.02 C 127.055 36.02 125.049 36.673 123.422 37.98 C 121.795 39.293 120.575 41.083 119.762 43.35 C 118.949 45.623 118.542 48.207 118.542 51.1 L 118.542 51.94 C 118.542 54.833 118.949 57.417 119.762 59.69 C 120.575 61.963 121.802 63.753 123.442 65.06 C 125.075 66.367 127.099 67.02 129.512 67.02 Z M 173.12 88.73 C 171.14 88.73 168.993 88.457 166.68 87.91 C 164.373 87.37 162.343 86.63 160.59 85.69 L 162.53 79.86 C 163.93 80.593 165.58 81.203 167.48 81.69 C 169.387 82.17 171.24 82.41 173.04 82.41 C 176.393 82.41 178.85 81.47 180.41 79.59 C 181.97 77.71 182.75 75.033 182.75 71.56 L 182.75 67.63 C 181.41 69.357 179.8 70.667 177.92 71.56 C 176.04 72.447 173.88 72.89 171.44 72.89 C 168.093 72.89 165.2 72.06 162.76 70.4 C 160.32 68.733 158.447 66.41 157.14 63.43 C 155.833 60.443 155.18 56.983 155.18 53.05 L 155.18 52.25 C 155.18 47.83 155.833 43.957 157.14 40.63 C 158.447 37.303 160.32 34.72 162.76 32.88 C 165.2 31.04 168.12 30.12 171.52 30.12 C 174.107 30.12 176.38 30.627 178.34 31.64 C 180.293 32.66 181.93 34.133 183.25 36.06 L 183.94 30.88 L 190.26 30.88 L 190.26 71.56 C 190.26 75.113 189.593 78.173 188.26 80.74 C 186.927 83.3 184.983 85.273 182.43 86.66 C 179.877 88.04 176.773 88.73 173.12 88.73 Z M 173.31 66.8 C 175.57 66.8 177.46 66.283 178.98 65.25 C 180.507 64.223 181.763 62.77 182.75 60.89 L 182.75 41.93 C 181.79 40.177 180.533 38.787 178.98 37.76 C 177.433 36.727 175.57 36.21 173.39 36.21 C 171.003 36.21 169.017 36.897 167.43 38.27 C 165.837 39.643 164.647 41.53 163.86 43.93 C 163.073 46.323 162.68 49.097 162.68 52.25 L 162.68 53.05 C 162.68 57.19 163.557 60.517 165.31 63.03 C 167.063 65.543 169.73 66.8 173.31 66.8 Z M 195.36 35.68 L 189.12 37.01 L 186.18 30.88 L 195.36 30.88 L 195.36 35.68 Z M 217.521 72.89 C 213.715 72.89 210.435 71.993 207.681 70.2 C 204.921 68.413 202.795 65.94 201.301 62.78 C 199.801 59.62 199.051 56.007 199.051 51.94 L 199.051 51.1 C 199.051 47.04 199.801 43.43 201.301 40.27 C 202.795 37.11 204.921 34.627 207.681 32.82 C 210.435 31.02 213.691 30.12 217.451 30.12 C 221.258 30.12 224.538 31.02 227.291 32.82 C 230.045 34.627 232.171 37.103 233.671 40.25 C 235.171 43.397 235.921 47.013 235.921 51.1 L 235.921 51.94 C 235.921 56.027 235.171 59.653 233.671 62.82 C 232.171 65.98 230.051 68.447 227.311 70.22 C 224.571 72 221.308 72.89 217.521 72.89 Z M 217.521 67.02 C 219.908 67.02 221.908 66.367 223.521 65.06 C 225.135 63.753 226.355 61.963 227.181 59.69 C 228.001 57.417 228.411 54.833 228.411 51.94 L 228.411 51.1 C 228.411 48.207 228.001 45.623 227.181 43.35 C 226.355 41.083 225.128 39.293 223.501 37.98 C 221.875 36.673 219.858 36.02 217.451 36.02 C 215.065 36.02 213.058 36.673 211.431 37.98 C 209.805 39.293 208.585 41.083 207.771 43.35 C 206.958 45.623 206.551 48.207 206.551 51.1 L 206.551 51.94 C 206.551 54.833 206.958 57.417 207.771 59.69 C 208.585 61.963 209.811 63.753 211.451 65.06 C 213.085 66.367 215.108 67.02 217.521 67.02 Z M 260.821 85.95 L 259.301 81.46 C 262.041 80.547 264.007 78.953 265.201 76.68 C 266.394 74.407 266.991 71.593 266.991 68.24 L 266.991 60.44 C 266.991 57.72 267.564 55.343 268.711 53.31 C 269.851 51.283 271.614 49.723 274.001 48.63 C 271.614 47.59 269.851 46.053 268.711 44.02 C 267.564 41.987 266.991 39.587 266.991 36.82 L 266.991 28.98 C 266.991 25.627 266.394 22.8 265.201 20.5 C 264.007 18.207 262.041 16.613 259.301 15.72 L 260.821 11.27 C 265.747 12.663 269.257 14.877 271.351 17.91 C 273.444 20.943 274.491 24.633 274.491 28.98 L 274.491 36.82 C 274.491 39.693 275.141 41.91 276.441 43.47 C 277.734 45.03 279.737 45.81 282.451 45.81 L 282.451 51.41 C 279.737 51.41 277.734 52.203 276.441 53.79 C 275.141 55.377 274.491 57.593 274.491 60.44 L 274.491 68.24 C 274.491 72.56 273.444 76.243 271.351 79.29 C 269.257 82.337 265.747 84.557 260.821 85.95 Z" style="fill: rgb(51, 51, 51); white-space: pre;"/>
</svg>